# xmcd
#
# Track frame offsets:
#	150
#	13610
#	31238
#	50082
#	64015
#	75961
#	91794
#	105811
#	123564
#	134523
#	148398
#	169003
#
# Disc length: 2425 seconds
#
# Revision: 1
# Processed by: cddbd v1.5.2PL0 Copyright (c) Steve Scherf et al.
# Submitted via: audiograbber 1.82.02
#
DISCID=9709770c
DTITLE=Brian Letton - My Heart's Still In The Bush
DYEAR=1999
DGENRE=Country
TTITLE0=The Old Rocking Chair
TTITLE1=When The Wattle Blooms
TTITLE2=The Shearers Cook
TTITLE3=Do You Really Know The Bush
TTITLE4=When Dad Played The Old Piano
TTITLE5=The Digger And His Dog
TTITLE6=My Hearts Still In The Bush
TTITLE7=Waltz On
TTITLE8=Give It A Go
TTITLE9=Lasseters Reef Of Gold
TTITLE10=A Dream Ago
TTITLE11=This Land Australia
EXTD=
EXTT0=
EXTT1=
EXTT2=
EXTT3=
EXTT4=
EXTT5=
EXTT6=
EXTT7=
EXTT8=
EXTT9=
EXTT10=
EXTT11=
PLAYORDER=
